<?xml version="1.0" encoding="UTF-8"?>
<svg width="24" height="24" fill="none" viewBox="0 0 24 24" xmlns="http://www.w3.org/2000/svg">
<g clip-path="url(#c)">
<path d="m12.142 15.576c-0.0815 0.0388-0.1762 0.0388-0.2577 0l-5.5818-2.6554c-0.26538-0.1262-0.53522 0.1648-0.38926 0.4199l5.8395 10.205c0.1153 0.2013 0.4056 0.2013 0.5208 0l5.8397-10.205c0.146-0.2551-0.1238-0.5461-0.3892-0.4199l-5.582 2.6554zm-2.7664 0.9742c-0.14596-0.2551 0.12388-0.5462 0.38926-0.4199l2.1195 1.0083c0.0815 0.0388 0.1762 0.0388 0.2577 0l2.1196-1.0083c0.2654-0.1263 0.5352 0.1648 0.3893 0.4199l-2.3774 4.1543c-0.1152 0.2014-0.4055 0.2014-0.5207 0l-2.3772-4.1543z" fill="url(#b)"/>
<path d="m18.172 11.13c0.1056-0.05 0.146-0.1794 0.0878-0.2806l-6.0735-10.548c-0.0769-0.13361-0.2697-0.13361-0.3466 3e-6l-6.0732 10.548c-0.05825 0.1012-0.01781 0.2306 0.08771 0.2806l6.0732 2.8767c0.0542 0.0257 0.117 0.0257 0.1712 0l6.0734-2.8767zm-6.3323-8.0011c0.0769-0.13361 0.2697-0.13361 0.3466 0l3.1321 5.4398c0.0978 0.16988-0.0818 0.36445-0.2589 0.28054l-2.9609-1.4024c-0.0542-0.02567-0.117-0.02567-0.1712 0l-2.9606 1.4024c-0.17716 0.08392-0.35675-0.11066-0.25894-0.28054l3.1319-5.4397zm0.0877 5.8792c0.0542-0.02567 0.117-0.02567 0.1712 0l3.2468 1.538c0.1525 0.0723 0.1525 0.2893-1e-4 0.3615l-3.2467 1.5378c-0.0542 0.0257-0.117 0.0257-0.1712 0l-3.2466-1.5378c-0.15251-0.0722-0.15251-0.2892-1e-5 -0.3615l3.2466-1.538z" fill="url(#a)"/>
</g>
<defs>
<linearGradient id="b" x1="6.1178" x2="19.907" y1="13.275" y2="17.166" gradientUnits="userSpaceOnUse">
<stop stop-color="#6763FD" offset="0"/>
<stop stop-color="#B84EF1" offset="1"/>
</linearGradient>
<linearGradient id="a" x1="6.3159" x2="20.021" y1=".93649" y2="3.9935" gradientUnits="userSpaceOnUse">
<stop stop-color="#6763FD" offset="0"/>
<stop stop-color="#B84EF1" offset="1"/>
</linearGradient>
<clipPath id="c">
<rect width="24" height="24" fill="#fff"/>
</clipPath>
</defs>
</svg>
