<svg width="40" height="40" viewBox="0 0 40 40" fill="none" xmlns="http://www.w3.org/2000/svg">
<path d="M20 1.25C30.3425 1.25 38.75 9.6575 38.75 20C38.75 30.3425 30.3425 38.75 20 38.75C9.6575 38.75 1.25 30.3425 1.25 20C1.25 9.6575 9.6575 1.25 20 1.25Z" fill="url(#paint0_linear_2_2884)"/>
<path d="M20 22.25V34.25L12.5 20L20 22.25Z" fill="url(#paint1_linear_2_2884)"/>
<path d="M20 4.25L27.5 20L20 22.25V4.25Z" fill="url(#paint2_linear_2_2884)"/>
<path d="M27.5 20L20 34.25V22.25L27.5 20Z" fill="url(#paint3_linear_2_2884)"/>
<path d="M20 4.25V22.25L12.5 20L20 4.25Z" fill="url(#paint4_linear_2_2884)"/>
<path d="M6.45843 12.7009C6.27467 12.5056 6.30113 12.1991 6.32341 11.9319C6.4085 10.9114 6.93177 8.23833 10.0535 7.44539C13.6885 6.52208 7.55608 13.8678 6.45843 12.7009Z" fill="url(#paint5_linear_2_2884)"/>
<path d="M20.6773 3.9275C20.5528 3.6665 20.2895 3.5 20 3.5C19.7105 3.5 19.4473 3.6665 19.3228 3.9275L11.8228 19.6775C11.7208 19.8905 11.726 20.1395 11.8363 20.3495L19.3363 34.5995C19.466 34.8455 19.7218 35 20 35C20.2783 35 20.534 34.8455 20.6638 34.5995L28.1638 20.3495C28.274 20.1402 28.2793 19.8913 28.1773 19.6775L20.6773 3.9275ZM20.75 7.5695L26.447 19.5328L20.75 21.242V7.5695ZM19.25 21.242L13.553 19.5328L19.25 7.5695V21.242ZM19.25 22.808V31.214L13.9955 21.2315L19.25 22.808ZM20.75 22.808L26.0045 21.2315L20.75 31.2147V22.808Z" fill="white"/>
<path d="M20 0.5C9.248 0.5 0.5 9.24725 0.5 20C0.5 30.7528 9.248 39.5 20 39.5C30.752 39.5 39.5 30.7528 39.5 20C39.5 9.24725 30.752 0.5 20 0.5ZM20 38C10.0753 38 2 29.9247 2 20C2 10.0753 10.0753 2 20 2C29.9247 2 38 10.0753 38 20C38 29.9247 29.9247 38 20 38Z" fill="#6763FD"/>
<defs>
<linearGradient id="paint0_linear_2_2884" x1="3.18965" y1="3.75" x2="43.2063" y2="13.6155" gradientUnits="userSpaceOnUse">
<stop stop-color="#6763FD"/>
<stop offset="1" stop-color="#B84EF1"/>
</linearGradient>
<linearGradient id="paint1_linear_2_2884" x1="12.8879" y1="20.95" x2="21.2371" y2="22.0334" gradientUnits="userSpaceOnUse">
<stop stop-color="#6763FD"/>
<stop offset="1" stop-color="#B84EF1"/>
</linearGradient>
<linearGradient id="paint2_linear_2_2884" x1="20.3879" y1="5.45" x2="28.7891" y2="6.31299" gradientUnits="userSpaceOnUse">
<stop stop-color="#6763FD"/>
<stop offset="1" stop-color="#B84EF1"/>
</linearGradient>
<linearGradient id="paint3_linear_2_2884" x1="20.3879" y1="20.95" x2="28.7371" y2="22.0334" gradientUnits="userSpaceOnUse">
<stop stop-color="#6763FD"/>
<stop offset="1" stop-color="#B84EF1"/>
</linearGradient>
<linearGradient id="paint4_linear_2_2884" x1="12.8879" y1="5.45" x2="21.2891" y2="6.31299" gradientUnits="userSpaceOnUse">
<stop stop-color="#6763FD"/>
<stop offset="1" stop-color="#B84EF1"/>
</linearGradient>
<linearGradient id="paint5_linear_2_2884" x1="6.56004" y1="7.72901" x2="11.8333" y2="8.89169" gradientUnits="userSpaceOnUse">
<stop stop-color="#6763FD"/>
<stop offset="1" stop-color="#B84EF1"/>
</linearGradient>
</defs>
</svg>
