<svg width="20" height="18" viewBox="0 0 20 18" fill="none" xmlns="http://www.w3.org/2000/svg">
<path d="M17.78 0.5H2.22C1.63176 0.501745 1.06812 0.734377 0.652166 1.14709C0.236215 1.5598 0.00175858 2.11906 0 2.70272V12.8432C-2.64169e-06 13.428 0.233676 13.9889 0.649817 14.4031C1.06596 14.8172 1.63061 15.0508 2.22 15.0525H4L5.28 17.0369C5.36923 17.1797 5.49398 17.2973 5.64226 17.3784C5.79054 17.4595 5.95736 17.5014 6.12667 17.5C6.2985 17.4979 6.46697 17.4525 6.61625 17.368C6.76553 17.2835 6.8907 17.1628 6.98 17.0171L8.19333 15.0327H17.78C18.3659 15.0309 18.9276 14.8001 19.3432 14.3903C19.7587 13.9804 19.9947 13.4245 20 12.8432V2.70272C19.9982 2.11906 19.7638 1.5598 19.3478 1.14709C18.9319 0.734377 18.3682 0.501745 17.78 0.5ZM18.6667 12.8432C18.6667 13.0771 18.5735 13.3016 18.4074 13.4676C18.2413 13.6336 18.0158 13.7278 17.78 13.7295H8.08667C7.90162 13.7301 7.71982 13.7779 7.55872 13.8682C7.39762 13.9586 7.26262 14.0885 7.16667 14.2455L6.14667 15.9124L5.07333 14.2323C4.97731 14.0778 4.84287 13.9504 4.68292 13.8624C4.52298 13.7744 4.3429 13.7286 4.16 13.7295H2.22C1.98423 13.7278 1.75872 13.6336 1.59262 13.4676C1.42653 13.3016 1.33333 13.0771 1.33333 12.8432V2.70272C1.33508 2.46993 1.42905 2.24716 1.59496 2.08254C1.76087 1.91793 1.98538 1.82469 2.22 1.82295H17.78C18.0146 1.82469 18.2391 1.91793 18.405 2.08254C18.5709 2.24716 18.6649 2.46993 18.6667 2.70272V12.8432Z" fill="url(#paint0_linear_1419_2)"/>
<path d="M13.3333 5.18298H6.66667C6.48986 5.18298 6.32029 5.25267 6.19526 5.37673C6.07024 5.50078 6 5.66903 6 5.84446C6 6.0199 6.07024 6.18815 6.19526 6.3122C6.32029 6.43625 6.48986 6.50594 6.66667 6.50594H13.3333C13.5101 6.50594 13.6797 6.43625 13.8047 6.3122C13.9298 6.18815 14 6.0199 14 5.84446C14 5.66903 13.9298 5.50078 13.8047 5.37673C13.6797 5.25267 13.5101 5.18298 13.3333 5.18298Z" fill="url(#paint1_linear_1419_2)"/>
<path d="M13.3333 8.8476H6.66667C6.48986 8.8476 6.32029 8.91729 6.19526 9.04134C6.07024 9.16539 6 9.33364 6 9.50907C6 9.68451 6.07024 9.85276 6.19526 9.97681C6.32029 10.1009 6.48986 10.1706 6.66667 10.1706H13.3333C13.5101 10.1706 13.6797 10.1009 13.8047 9.97681C13.9298 9.85276 14 9.68451 14 9.50907C14 9.33364 13.9298 9.16539 13.8047 9.04134C13.6797 8.91729 13.5101 8.8476 13.3333 8.8476Z" fill="url(#paint2_linear_1419_2)"/>
<defs>
<linearGradient id="paint0_linear_1419_2" x1="1.03448" y1="1.63333" x2="21.9171" y2="7.69018" gradientUnits="userSpaceOnUse">
<stop stop-color="#6763FD"/>
<stop offset="1" stop-color="#B84EF1"/>
</linearGradient>
<linearGradient id="paint1_linear_1419_2" x1="6.41379" y1="5.27118" x2="9.22393" y2="9.46058" gradientUnits="userSpaceOnUse">
<stop stop-color="#6763FD"/>
<stop offset="1" stop-color="#B84EF1"/>
</linearGradient>
<linearGradient id="paint2_linear_1419_2" x1="6.41379" y1="8.93579" x2="9.22392" y2="13.1252" gradientUnits="userSpaceOnUse">
<stop stop-color="#6763FD"/>
<stop offset="1" stop-color="#B84EF1"/>
</linearGradient>
</defs>
</svg>
