<svg width="20" height="20" viewBox="0 0 20 20" fill="none" xmlns="http://www.w3.org/2000/svg">
<g clip-path="url(#clip0_2_2821)">
<path d="M11.7688 10.0008L19.6335 2.13602C20.1222 1.6478 20.1222 0.85566 19.6335 0.367448C19.1449 -0.121181 18.3536 -0.121181 17.865 0.367448L10.0002 8.2322L2.13504 0.367448C1.64641 -0.121181 0.8551 -0.121181 0.366471 0.367448C-0.122157 0.85566 -0.122157 1.6478 0.366471 2.13602L8.23164 10.0008L0.366471 17.8655C-0.122157 18.3537 -0.122157 19.1459 0.366471 19.6341C0.610786 19.878 0.930979 20.0001 1.25076 20.0001C1.57053 20.0001 1.89073 19.878 2.13504 19.6337L10.0002 11.7689L17.865 19.6337C18.1093 19.878 18.4295 20.0001 18.7492 20.0001C19.069 20.0001 19.3892 19.878 19.6335 19.6337C20.1222 19.1455 20.1222 18.3533 19.6335 17.8651L11.7688 10.0008Z" fill="white"/>
</g>
<defs>
<clipPath id="clip0_2_2821">
<rect width="20" height="20" fill="white"/>
</clipPath>
</defs>
</svg>
