<svg width="24" height="24" viewBox="0 0 24 24" fill="none" xmlns="http://www.w3.org/2000/svg">
<path d="M12 0C9.62663 0 7.30655 0.703788 5.33316 2.02236C3.35977 3.34094 1.8217 5.21508 0.913451 7.4078C0.0051994 9.60051 -0.232441 12.0133 0.230582 14.3411C0.693605 16.6689 1.83649 18.807 3.51472 20.4853C5.19295 22.1635 7.33115 23.3064 9.65892 23.7694C11.9867 24.2324 14.3995 23.9948 16.5922 23.0865C18.7849 22.1783 20.6591 20.6402 21.9776 18.6668C23.2962 16.6934 24 14.3734 24 12C24 8.8174 22.7357 5.76515 20.4853 3.51472C18.2348 1.26428 15.1826 0 12 0V0ZM18.3831 12.7671L8.09743 17.91C7.96672 17.9753 7.82148 18.0061 7.67551 17.9995C7.52954 17.9929 7.38768 17.9491 7.26341 17.8722C7.13913 17.7954 7.03658 17.688 6.96547 17.5603C6.89437 17.4327 6.85708 17.289 6.85715 17.1429V6.85714C6.85723 6.71109 6.89462 6.56748 6.96579 6.43995C7.03695 6.31241 7.13952 6.20517 7.26377 6.1284C7.38802 6.05164 7.52982 6.0079 7.67572 6.00132C7.82163 5.99475 7.96679 6.02557 8.09743 6.09086L18.3831 11.2337C18.5253 11.305 18.6449 11.4144 18.7284 11.5497C18.812 11.685 18.8562 11.841 18.8562 12C18.8562 12.159 18.812 12.3149 18.7284 12.4503C18.6449 12.5856 18.5253 12.695 18.3831 12.7663V12.7671Z" fill="#747582"/>
</svg>
